<svg xmlns="http://www.w3.org/2000/svg" viewBox="0 0 37.54 36.67">
  <defs>
    <style>
      .a {
        fill: #231f20;
      }
    </style>
  </defs>
  <title>icon</title>
  <path class="a" d="M37.42,4.42a5.15,5.15,0,1,1-9-4.42H5.57A5.58,5.58,0,0,0,0,5.57V31.1a5.58,5.58,0,0,0,5.57,5.57H32a5.58,5.58,0,0,0,5.57-5.57V5.57A5.4,5.4,0,0,0,37.42,4.42ZM29.15,16a2,2,0,1,1,0,2.87A2,2,0,0,1,29.15,16ZM29,20.85a1.35,1.35,0,1,1-1.9,0A1.35,1.35,0,0,1,29,20.85ZM23,5.79a1.6,1.6,0,1,1,0,2.26A1.6,1.6,0,0,1,23,5.79Zm-.46,5.34a3.15,3.15,0,1,1,0,4.45A3.15,3.15,0,0,1,22.55,11.13ZM1.84,31.89ZM34,31.1a2.05,2.05,0,0,1-2.05,2H5.57a2.05,2.05,0,0,1-2.05-2V24.28a1.29,1.29,0,0,0,.59-.06,1.56,1.56,0,0,0,0-.55c.07,0,0,0,.08,0l.35,0s-.09.09.08.28a.69.69,0,0,1,0,.34l0,0c.43,0,.84.08,1-.21H5.51a2.88,2.88,0,0,0,.21-.55l-.08,0c-.07-.26.19-.25,0-.43.07-.26.27-.28,0-.46a.67.67,0,0,0,.13-.22c.08-.07-.14-.13-.08-.29L5.76,22a1.78,1.78,0,0,0,0-.59.28.28,0,0,1,.21-.21c0-.14-.09-.16-.21-.22a.28.28,0,0,1,.17-.25l-.13-.13c0-.2,0-.18.17-.25,0-.24-.06-.3-.21-.39a.51.51,0,0,1,.08-.21H7.12a.71.71,0,0,1,.21-.17A2,2,0,0,1,7.42,19a2,2,0,0,1,.42-.3l.34.13c.13.05.49,0,.68.09s.06.36.17.55.37,0,.55,0,.36.19.51.25,0,.09.05.13-.14.22-.3.3a.28.28,0,0,0,.17.25c0,.16,0,.12-.13.17a.83.83,0,0,0,.13.3C9.93,21,10,21,9.84,21c.15.42.42,3.19,0,3.73v3.1a3.91,3.91,0,0,0,.08,1.36c.17,0,.53-.1.68,0a.2.2,0,0,0,.13,0c.47-.6,0-2.11.38-2.67.1-.27.4-.14.51-.39a.57.57,0,0,1,.25,0s0,0,.05.13h.38a.83.83,0,0,0,.21.17,3.74,3.74,0,0,0,.21,1.91h.13a.41.41,0,0,1,.09-.21h.72l.12-.17.3,0,.09-.13c.2-.07.33.11.51,0,.38,0,.44.29.71.38l-1.6,0a3.22,3.22,0,0,1,.29.17c.13,0,.12-.07.17-.09a.93.93,0,0,1,.81.17.92.92,0,0,0,.72-.21,3.36,3.36,0,0,1,.09-1.06.65.65,0,0,1,0-.13,1.26,1.26,0,0,1,.72,0H17c.09.43,0,.88.09,1.28v.51c.1.19.2,0,.21.42l.09,0a.35.35,0,0,0,.17,0c.06-.11,0-.37,0-.51s.23,0,.38-.08.09-.19.17-.22.22.07.34,0c.43,0,.34-.19.59-.34,0-.07-.21-.68-.21-.68.07-.17.19-.2.26-.38s.49,0,.59,0a1,1,0,0,1,.47.08V28h.08a2.62,2.62,0,0,1,.94,0c.27-.07.1-.31.38-.47a1.06,1.06,0,0,0-.17-.59h0c.05-.14.09-.15.21-.21a.34.34,0,0,0-.21-.21v-.09c.11-.09.2-.13.25-.3.48-.09-.53.1-.08,0a1.3,1.3,0,0,1,1,0h1l.13-.17a2.74,2.74,0,0,0,.72,0,3.1,3.1,0,0,1,.08-1.15,2.3,2.3,0,0,1,1.32,0l.13,0a.39.39,0,0,0,0,.09A4.7,4.7,0,0,0,26,26c.89,0-.07,0,1,0,.38,0,.95-.09,1.15,0h.08a.51.51,0,0,0,.08.21,5.93,5.93,0,0,0,.09,2l.08,0h.73c.06,0,0-.12.12-.17.34-.22.64.12.81.17s.26,0,.34,0c.24.11.3.38.47.56,0,.2-.1.24-.13.33s.1.22.13.3a3,3,0,0,1,0,.6l0,0,.25,0a2.32,2.32,0,0,1,0-.51c.07-.14.2,0,.34-.09s.13-.17.17-.21.19.08.25.21h.68V27a2.77,2.77,0,0,1,0-1L34,25.9Z"/>
</svg>
