<svg xmlns="http://www.w3.org/2000/svg" viewBox="0 0 150.64 29.09">
  <defs>
    <style>
      .a {
        isolation: isolate;
      }

      .b {
        fill: #98ddde;
      }
    </style>
  </defs>
  <title>apple</title>
  <g>
    <g class="a">
      <g class="a">
        <path class="b" d="M42.58,24c-.13-.43-.28-.88-.44-1.33l-.48-1.37H36.79l-.48,1.37L35.87,24H33c.47-1.34.91-2.59,1.33-3.73s.83-2.21,1.24-3.22.8-2,1.19-2.87.8-1.79,1.22-2.65H40.6c.41.86.81,1.75,1.21,2.65S42.61,16,43,17.05s.81,2.08,1.23,3.22.87,2.39,1.34,3.73Zm-3.37-9.65c-.06.18-.15.43-.27.74s-.26.67-.42,1.08S38.2,17,38,17.52s-.39,1-.58,1.55H41c-.19-.54-.37-1.06-.55-1.55s-.35-.95-.51-1.35l-.43-1.09C39.38,14.77,39.29,14.53,39.21,14.35Z"/>
        <path class="b" d="M50.94,11.38a7.81,7.81,0,0,1,4.28,1,3.57,3.57,0,0,1,1.5,3.22,3.61,3.61,0,0,1-1.52,3.25,7.84,7.84,0,0,1-4.32,1H50V24H47.19V11.71a16.41,16.41,0,0,1,2-.26C49.82,11.41,50.42,11.38,50.94,11.38Zm.18,2.4h-.6l-.52,0v3.6h.88a4.69,4.69,0,0,0,2.2-.4,1.51,1.51,0,0,0,.74-1.47,1.87,1.87,0,0,0-.19-.87,1.58,1.58,0,0,0-.54-.55,2.56,2.56,0,0,0-.86-.28A6.29,6.29,0,0,0,51.12,13.78Z"/>
        <path class="b" d="M62.53,11.38a7.81,7.81,0,0,1,4.28,1,3.57,3.57,0,0,1,1.5,3.22,3.63,3.63,0,0,1-1.51,3.25,7.89,7.89,0,0,1-4.32,1h-.89V24h-2.8V11.71a16.24,16.24,0,0,1,1.94-.26C61.41,11.41,62,11.38,62.53,11.38Zm.18,2.4h-.6l-.52,0v3.6h.89a4.67,4.67,0,0,0,2.19-.4,1.51,1.51,0,0,0,.74-1.47,1.75,1.75,0,0,0-.19-.87,1.58,1.58,0,0,0-.54-.55,2.5,2.5,0,0,0-.85-.28A6.48,6.48,0,0,0,62.71,13.78Z"/>
        <path class="b" d="M78.71,21.59V24H70.38V11.53h2.81V21.59Z"/>
        <path class="b" d="M80.51,24V11.53h8.43v2.35H83.32v2.45h5v2.31h-5v3h6V24Z"/>
        <path class="b" d="M99.05,11.53c.22.39.47.88.75,1.46s.58,1.22.88,1.89.61,1.37.92,2.08l.84,2c.27-.62.55-1.29.85-2s.61-1.4.91-2.08.6-1.3.89-1.89.53-1.07.75-1.46h2.55c.12.82.23,1.75.34,2.78s.19,2.09.27,3.2.15,2.22.21,3.34.12,2.17.17,3.15h-2.73q-.06-1.82-.15-4t-.27-4.32c-.21.5-.45,1.06-.72,1.67s-.53,1.23-.78,1.84L104,21l-.62,1.43h-2c-.17-.4-.37-.88-.61-1.43s-.5-1.15-.75-1.76l-.79-1.84c-.26-.61-.5-1.17-.72-1.67q-.18,2.18-.27,4.32c-.06,1.43-.11,2.75-.14,4H95.38c.05-1,.1-2,.17-3.15s.14-2.23.22-3.34.16-2.18.27-3.2.21-2,.33-2.78Z"/>
        <path class="b" d="M116.76,24.25a6.15,6.15,0,0,1-2.26-.37,4,4,0,0,1-2.5-2.59,6.34,6.34,0,0,1-.29-2V11.53h2.8v7.52a4.43,4.43,0,0,0,.17,1.29,2.43,2.43,0,0,0,.47.86,1.76,1.76,0,0,0,.72.48,3,3,0,0,0,.93.14,2.25,2.25,0,0,0,1.66-.63,2.91,2.91,0,0,0,.64-2.14V11.53h2.81v7.75a6.44,6.44,0,0,1-.3,2,4.26,4.26,0,0,1-.94,1.58,4.34,4.34,0,0,1-1.6,1A6.67,6.67,0,0,1,116.76,24.25Z"/>
        <path class="b" d="M128,21.86a3.78,3.78,0,0,0,1-.1,1.89,1.89,0,0,0,.62-.27.86.86,0,0,0,.33-.41,1.42,1.42,0,0,0,.09-.52,1.21,1.21,0,0,0-.58-1,8.43,8.43,0,0,0-2-.87c-.41-.14-.81-.31-1.22-.49a4.33,4.33,0,0,1-1.1-.71,3.33,3.33,0,0,1-.79-1,3.13,3.13,0,0,1-.31-1.47,3.63,3.63,0,0,1,.33-1.56,3.25,3.25,0,0,1,.91-1.17,4.11,4.11,0,0,1,1.44-.75,6.63,6.63,0,0,1,1.91-.26,7.77,7.77,0,0,1,2.18.27,8.07,8.07,0,0,1,1.51.59l-.81,2.22a7.78,7.78,0,0,0-1.16-.48,4.94,4.94,0,0,0-1.54-.21,2.8,2.8,0,0,0-1.45.28,1,1,0,0,0-.44.86,1,1,0,0,0,.16.57,1.56,1.56,0,0,0,.46.42,4.44,4.44,0,0,0,.69.35l.85.31c.65.24,1.21.48,1.69.71A4.77,4.77,0,0,1,132,18a2.86,2.86,0,0,1,.71,1.1,4.31,4.31,0,0,1,.24,1.53,3.25,3.25,0,0,1-1.23,2.71,5.9,5.9,0,0,1-3.69,1,9.62,9.62,0,0,1-1.49-.1,7.89,7.89,0,0,1-1.18-.24,6.77,6.77,0,0,1-.88-.31,5.2,5.2,0,0,1-.62-.3l.79-2.23a7.75,7.75,0,0,0,1.38.55A7.15,7.15,0,0,0,128,21.86Z"/>
        <path class="b" d="M135.09,11.53h2.8V24h-2.8Z"/>
        <path class="b" d="M146.46,24.25a6,6,0,0,1-4.63-1.69,6.76,6.76,0,0,1-1.6-4.81,7.46,7.46,0,0,1,.49-2.76,6,6,0,0,1,1.33-2.05,5.64,5.64,0,0,1,2-1.27,7.21,7.21,0,0,1,2.54-.43,8.06,8.06,0,0,1,1.44.12,8.29,8.29,0,0,1,1.13.26,6.84,6.84,0,0,1,.81.32l.47.25-.81,2.27a6.94,6.94,0,0,0-1.34-.52,6.18,6.18,0,0,0-1.74-.22,3.69,3.69,0,0,0-1.27.22,2.84,2.84,0,0,0-1.1.69,3.43,3.43,0,0,0-.76,1.23,5.26,5.26,0,0,0-.29,1.84,6.35,6.35,0,0,0,.19,1.61A3.35,3.35,0,0,0,144,20.6a2.89,2.89,0,0,0,1.11.85,3.91,3.91,0,0,0,1.65.32,8.85,8.85,0,0,0,1.1-.07c.33-.05.61-.11.87-.17a5.57,5.57,0,0,0,.66-.23l.52-.23.78,2.25A6.65,6.65,0,0,1,149,24,9.38,9.38,0,0,1,146.46,24.25Z"/>
      </g>
    </g>
    <path class="b" d="M25,21.35a20.4,20.4,0,0,1-1.89,3.52c-1.23,1.87-3,4.2-5.1,4.22-1.9,0-2.39-1.24-5-1.22s-3.12,1.24-5,1.22c-2.14,0-3.78-2.12-5-4C-.44,19.88-.81,13.75,1.32,10.49a7.58,7.58,0,0,1,6.1-3.68c2.28,0,3.71,1.25,5.58,1.25s2.94-1.25,5.56-1.25a7.41,7.41,0,0,1,5.59,3A6.4,6.4,0,0,0,25,21.35ZM16.57,4.72A6.4,6.4,0,0,0,18,0a6.9,6.9,0,0,0-4.45,2.39A5.93,5.93,0,0,0,12.08,7,5.8,5.8,0,0,0,16.57,4.72Z"/>
  </g>
</svg>
