<svg xmlns="http://www.w3.org/2000/svg" viewBox="0 0 114.5 21">
  <defs>
    <style>
      .a {
        isolation: isolate;
      }

      .b {
        fill: #98ddde;
      }
    </style>
  </defs>
  <title>follow</title>
  <g>
    <g class="a">
      <g class="a">
        <path class="b" d="M18.71,18V5.53h8.35V7.88H21.52v2.61h4.93v2.36H21.52V18Z"/>
        <path class="b" d="M36.55,18c-.14-.43-.29-.88-.45-1.33l-.48-1.37H30.75c-.16.45-.32.91-.47,1.37s-.31.9-.45,1.33H26.92c.47-1.34.91-2.59,1.33-3.73s.84-2.21,1.24-3.22.8-2,1.19-2.87.8-1.79,1.22-2.65h2.66c.41.86.82,1.75,1.21,2.65S36.57,10,37,11.05s.81,2.08,1.24,3.22.86,2.39,1.33,3.73ZM33.17,8.35c-.06.18-.15.43-.27.74s-.26.67-.41,1.08L32,11.52c-.19.49-.39,1-.58,1.55H35c-.2-.54-.38-1.06-.56-1.55s-.35-.95-.51-1.35l-.42-1.09C33.35,8.77,33.25,8.53,33.17,8.35Z"/>
        <path class="b" d="M46.39,18.25a6.05,6.05,0,0,1-4.63-1.69,6.76,6.76,0,0,1-1.59-4.81A7.46,7.46,0,0,1,40.65,9a6.11,6.11,0,0,1,1.33-2,5.64,5.64,0,0,1,2-1.27,7.24,7.24,0,0,1,2.54-.43A7.9,7.9,0,0,1,48,5.36a8.29,8.29,0,0,1,1.13.26,5.69,5.69,0,0,1,.81.32l.47.25-.81,2.27a6.69,6.69,0,0,0-1.34-.52,6.18,6.18,0,0,0-1.74-.22,3.73,3.73,0,0,0-1.27.22,2.74,2.74,0,0,0-1.09.69,3.44,3.44,0,0,0-.77,1.23,5.26,5.26,0,0,0-.29,1.84,6.83,6.83,0,0,0,.19,1.61,3.51,3.51,0,0,0,.61,1.29,3,3,0,0,0,1.11.85,4,4,0,0,0,1.66.32,8.81,8.81,0,0,0,1.09-.07c.33,0,.62-.11.87-.17a5.57,5.57,0,0,0,.66-.23l.53-.23.77,2.25A6.55,6.55,0,0,1,48.9,18,9.46,9.46,0,0,1,46.39,18.25Z"/>
        <path class="b" d="M52.37,18V5.53h8.42V7.88H55.18v2.45h5v2.31h-5v3h6V18Z"/>
        <path class="b" d="M67.44,18.16c-.69,0-1.37,0-2-.06a13.56,13.56,0,0,1-2.11-.3V5.71a18.53,18.53,0,0,1,1.89-.25c.68,0,1.32-.08,1.91-.08a13.31,13.31,0,0,1,2.18.17A5.2,5.2,0,0,1,71,6.14a3,3,0,0,1,1.13,1.09,3.17,3.17,0,0,1,.4,1.66,2.65,2.65,0,0,1-1.44,2.36,3,3,0,0,1,1.62,1.22,3.52,3.52,0,0,1,.43,1.75,3.33,3.33,0,0,1-1.43,3A7.47,7.47,0,0,1,67.44,18.16ZM66,10.42h1.37a3.87,3.87,0,0,0,1.86-.33A1.15,1.15,0,0,0,69.79,9,1.09,1.09,0,0,0,69.22,8a3.64,3.64,0,0,0-1.69-.31h-.78L66,7.7Zm0,2.14v3.23l.67.05.79,0a4.91,4.91,0,0,0,2-.36,1.35,1.35,0,0,0,.77-1.33,1.32,1.32,0,0,0-.65-1.24,3.85,3.85,0,0,0-1.85-.37Z"/>
        <path class="b" d="M87.25,11.75a7.86,7.86,0,0,1-.47,2.82,5.92,5.92,0,0,1-1.31,2,5.48,5.48,0,0,1-2,1.23,7.3,7.3,0,0,1-2.46.41,7.13,7.13,0,0,1-2.41-.41,5.7,5.7,0,0,1-2-1.23,5.82,5.82,0,0,1-1.33-2,7.64,7.64,0,0,1-.49-2.82,7.22,7.22,0,0,1,.51-2.81,6,6,0,0,1,1.36-2,5.67,5.67,0,0,1,2-1.24A6.93,6.93,0,0,1,81,5.24a7.15,7.15,0,0,1,2.42.41,5.67,5.67,0,0,1,2,1.24,6.11,6.11,0,0,1,1.33,2.05A7.62,7.62,0,0,1,87.25,11.75Zm-9.52,0A5.64,5.64,0,0,0,78,13.41a3.79,3.79,0,0,0,.64,1.27,3,3,0,0,0,1,.82,3.52,3.52,0,0,0,2.8,0,2.87,2.87,0,0,0,1-.82,3.81,3.81,0,0,0,.65-1.27,5.64,5.64,0,0,0,.23-1.66,5.74,5.74,0,0,0-.23-1.66,3.86,3.86,0,0,0-.65-1.28,2.87,2.87,0,0,0-1-.82A3.34,3.34,0,0,0,81,7.7a3.16,3.16,0,0,0-1.4.3,3.11,3.11,0,0,0-1,.83A3.75,3.75,0,0,0,78,10.11,5.65,5.65,0,0,0,77.73,11.75Z"/>
        <path class="b" d="M101.47,11.75a7.86,7.86,0,0,1-.47,2.82,5.92,5.92,0,0,1-1.31,2,5.48,5.48,0,0,1-2,1.23,7.3,7.3,0,0,1-2.46.41,7.13,7.13,0,0,1-2.41-.41,5.61,5.61,0,0,1-2-1.23,5.82,5.82,0,0,1-1.33-2,7.44,7.44,0,0,1-.49-2.82,7.22,7.22,0,0,1,.51-2.81,6,6,0,0,1,1.36-2,5.67,5.67,0,0,1,2-1.24,6.93,6.93,0,0,1,2.36-.41,7,7,0,0,1,2.41.41,5.62,5.62,0,0,1,2,1.24A6.11,6.11,0,0,1,101,8.94,7.62,7.62,0,0,1,101.47,11.75Zm-9.52,0a5.64,5.64,0,0,0,.23,1.66,3.79,3.79,0,0,0,.64,1.27,3,3,0,0,0,1,.82,3.52,3.52,0,0,0,2.8,0,2.87,2.87,0,0,0,1-.82,3.81,3.81,0,0,0,.65-1.27,5.64,5.64,0,0,0,.23-1.66,5.74,5.74,0,0,0-.23-1.66,3.86,3.86,0,0,0-.65-1.28,2.87,2.87,0,0,0-1-.82,3.34,3.34,0,0,0-1.4-.29,3.16,3.16,0,0,0-1.4.3,3.11,3.11,0,0,0-1,.83,3.75,3.75,0,0,0-.64,1.28A5.65,5.65,0,0,0,92,11.75Z"/>
        <path class="b" d="M111.17,18c-.26-.41-.55-.84-.9-1.32s-.71-.94-1.11-1.42-.81-.94-1.24-1.38a12.33,12.33,0,0,0-1.3-1.16V18h-2.81V5.53h2.81v4.68c.72-.75,1.46-1.55,2.2-2.38s1.43-1.59,2.06-2.3h3.34c-.85,1-1.71,2-2.56,2.91s-1.77,1.87-2.72,2.82a21.42,21.42,0,0,1,2.89,3A35,35,0,0,1,114.5,18Z"/>
      </g>
    </g>
    <path class="b" d="M2.7,21V11.13H0V7.61H2.7v-3C2.7,2.2,4.3,0,8,0a17.4,17.4,0,0,1,2.6.19l-.09,3.27H8.14C6.81,3.46,6.6,4,6.6,5V7.61h4l-.17,3.52H6.6V21Z"/>
  </g>
</svg>
