<svg xmlns="http://www.w3.org/2000/svg" viewBox="0 0 131.21 22">
  <defs>
    <style>
      .a {
        isolation: isolate;
      }

      .b {
        fill: #98ddde;
      }
    </style>
  </defs>
  <title>insta</title>
  <g>
    <g class="a">
      <g class="a">
        <path class="b" d="M27.87,5.53h2.81V18H27.87Z"/>
        <path class="b" d="M41.93,18q-1.2-2.14-2.61-4.23a42.44,42.44,0,0,0-3-3.94V18H33.56V5.53h2.29c.39.39.83.88,1.31,1.45s1,1.19,1.47,1.85,1,1.33,1.48,2,1,1.38,1.39,2V5.53h2.79V18Z"/>
        <path class="b" d="M50.57,15.86a3.83,3.83,0,0,0,1-.1,1.89,1.89,0,0,0,.62-.27.86.86,0,0,0,.33-.41,1.42,1.42,0,0,0,.09-.52,1.23,1.23,0,0,0-.58-1,8.43,8.43,0,0,0-2-.87c-.41-.14-.82-.31-1.22-.49a4.33,4.33,0,0,1-1.1-.71,3.18,3.18,0,0,1-.79-1A3.13,3.13,0,0,1,46.61,9a3.78,3.78,0,0,1,.32-1.56,3.4,3.4,0,0,1,.92-1.17,4.11,4.11,0,0,1,1.44-.75,6.63,6.63,0,0,1,1.91-.26,7.77,7.77,0,0,1,2.18.27,8.35,8.35,0,0,1,1.51.59l-.81,2.22a8.25,8.25,0,0,0-1.16-.48,5,5,0,0,0-1.54-.21,2.8,2.8,0,0,0-1.45.28,1,1,0,0,0-.44.86,1,1,0,0,0,.16.57,1.45,1.45,0,0,0,.46.42,4.8,4.8,0,0,0,.68.35l.86.31c.65.24,1.21.48,1.69.71a4.77,4.77,0,0,1,1.2.82,3,3,0,0,1,.71,1.1,4.32,4.32,0,0,1,.23,1.53,3.24,3.24,0,0,1-1.22,2.71,5.94,5.94,0,0,1-3.69,1,9.62,9.62,0,0,1-1.49-.1,7.89,7.89,0,0,1-1.18-.24A6.77,6.77,0,0,1,47,17.6a6.36,6.36,0,0,1-.63-.3l.8-2.23a7.94,7.94,0,0,0,1.37.55A7.28,7.28,0,0,0,50.57,15.86Z"/>
        <path class="b" d="M66.54,5.53V7.92H62.77V18H60V7.92H56.2V5.53Z"/>
        <path class="b" d="M75.23,18c-.14-.43-.29-.88-.45-1.33L74.3,15.3H69.43c-.16.45-.31.91-.47,1.37s-.31.9-.44,1.33H65.6c.47-1.34.91-2.59,1.34-3.73s.83-2.21,1.23-3.22.8-2,1.19-2.87.8-1.79,1.22-2.65h2.66c.41.86.82,1.75,1.22,2.65s.79,1.86,1.2,2.87.82,2.08,1.24,3.22.87,2.39,1.34,3.73ZM71.85,8.35c-.06.18-.15.43-.27.74s-.26.67-.41,1.08l-.52,1.35c-.19.49-.38,1-.58,1.55h3.57c-.19-.54-.38-1.06-.56-1.55s-.35-.95-.51-1.35l-.42-1.09C72,8.77,71.93,8.53,71.85,8.35Z"/>
        <path class="b" d="M85.47,7.69a3.39,3.39,0,0,0-2.83,1.09,4.55,4.55,0,0,0-.88,3A6.14,6.14,0,0,0,82,13.42a3.57,3.57,0,0,0,.65,1.29,3,3,0,0,0,1.08.83,3.54,3.54,0,0,0,1.51.3l.8,0a3.29,3.29,0,0,0,.59-.07V11.41h2.8v6.18a10.5,10.5,0,0,1-1.62.42,14.21,14.21,0,0,1-2.75.22,7.11,7.11,0,0,1-2.55-.43,5.38,5.38,0,0,1-1.95-1.26,5.57,5.57,0,0,1-1.25-2,8.11,8.11,0,0,1-.44-2.76A7.48,7.48,0,0,1,79.33,9a6,6,0,0,1,1.34-2,5.52,5.52,0,0,1,2-1.27,6.76,6.76,0,0,1,2.43-.43,9.74,9.74,0,0,1,1.6.12,9.15,9.15,0,0,1,1.22.26,6.46,6.46,0,0,1,.85.32c.22.11.38.19.47.25l-.81,2.25a7.4,7.4,0,0,0-1.32-.53A5.64,5.64,0,0,0,85.47,7.69Z"/>
        <path class="b" d="M95.68,5.38a7.7,7.7,0,0,1,4.3,1,3.47,3.47,0,0,1,1.49,3.11,3.53,3.53,0,0,1-.6,2.13,4,4,0,0,1-1.74,1.29c.26.31.52.67.8,1.07s.54.82.82,1.26.53.89.78,1.37.48.93.7,1.39H99.09l-.7-1.24q-.35-.63-.72-1.23c-.24-.39-.49-.77-.73-1.12a11.42,11.42,0,0,0-.72-1H94.83V18H92V5.71a16.71,16.71,0,0,1,1.9-.26C94.58,5.41,95.16,5.38,95.68,5.38Zm.16,2.4h-.55l-.46,0v3.38h.79a4.83,4.83,0,0,0,2.27-.39,1.44,1.44,0,0,0,.69-1.35,1.39,1.39,0,0,0-.7-1.31A4.38,4.38,0,0,0,95.84,7.78Z"/>
        <path class="b" d="M113,18c-.14-.43-.29-.88-.45-1.33L112,15.3h-4.87c-.16.45-.32.91-.47,1.37s-.31.9-.45,1.33h-2.91c.47-1.34.91-2.59,1.33-3.73s.84-2.21,1.24-3.22.8-2,1.19-2.87.8-1.79,1.22-2.65H111c.41.86.82,1.75,1.21,2.65s.8,1.86,1.21,2.87.81,2.08,1.24,3.22.86,2.39,1.33,3.73Zm-3.38-9.65c-.06.18-.15.43-.27.74s-.26.67-.41,1.08l-.52,1.35c-.19.49-.38,1-.58,1.55h3.57c-.2-.54-.38-1.06-.56-1.55s-.35-.95-.51-1.35l-.42-1.09C109.76,8.77,109.66,8.53,109.58,8.35Z"/>
        <path class="b" d="M120.88,5.53c.21.39.46.88.75,1.46s.57,1.22.88,1.89.61,1.37.91,2.08.58,1.38.85,2c.27-.62.55-1.29.85-2s.6-1.4.91-2.08.6-1.3.88-1.89.54-1.07.75-1.46h2.56c.12.82.23,1.75.33,2.78s.19,2.09.27,3.2.15,2.22.22,3.34.12,2.17.17,3.15h-2.74c0-1.21-.08-2.53-.14-4s-.15-2.87-.27-4.32c-.22.5-.46,1.06-.72,1.67l-.79,1.84L125.8,15c-.24.55-.44,1-.61,1.43h-2L122.61,15l-.75-1.76-.78-1.84c-.27-.61-.51-1.17-.72-1.67-.12,1.45-.21,2.89-.28,4.32s-.1,2.75-.14,4h-2.73c0-1,.1-2,.17-3.15s.13-2.23.21-3.34.17-2.18.27-3.2.22-2,.34-2.78Z"/>
      </g>
    </g>
    <path class="b" d="M11,2c2.94,0,3.3,0,4.4.07a5.76,5.76,0,0,1,2,.37,3.7,3.7,0,0,1,2.09,2.09A6.21,6.21,0,0,1,20,6.6C20,7.7,20,8.11,20,11s0,3.3-.07,4.4a6,6,0,0,1-.37,2,3.7,3.7,0,0,1-2.09,2.09,6.51,6.51,0,0,1-2,.37c-1.1.06-1.5.07-4.4.07s-3.3,0-4.4-.07a6.2,6.2,0,0,1-2.13-.33,3.65,3.65,0,0,1-2.09-2.09,6.22,6.22,0,0,1-.37-2.09C2,14.3,2,13.89,2,11s0-3.3.07-4.4a6.22,6.22,0,0,1,.37-2.09A3.65,3.65,0,0,1,4.51,2.42,5.76,5.76,0,0,1,6.6,2.05C7.7,2,8.11,2,11,2Zm0-2C8,0,7.63,0,6.47.07A8.36,8.36,0,0,0,3.8.57,5.7,5.7,0,0,0,.57,3.8a8.36,8.36,0,0,0-.5,2.67C0,7.63,0,8,0,11s0,3.37.07,4.53a8.36,8.36,0,0,0,.5,2.67A5.7,5.7,0,0,0,3.8,21.43a8.36,8.36,0,0,0,2.67.5C7.63,22,8,22,11,22s3.37,0,4.53-.07a8.36,8.36,0,0,0,2.67-.5,5.7,5.7,0,0,0,3.23-3.23,8.36,8.36,0,0,0,.5-2.67c0-1.16.07-1.54.07-4.53s0-3.37-.07-4.53a8.36,8.36,0,0,0-.5-2.67A5.7,5.7,0,0,0,18.2.57a8.36,8.36,0,0,0-2.67-.5C14.37,0,14,0,11,0Zm0,5.35A5.63,5.63,0,1,0,15,7,5.65,5.65,0,0,0,11,5.35Zm0,9.31a3.65,3.65,0,1,1,2.59-1.07A3.66,3.66,0,0,1,11,14.66Zm7.19-9.53a1.32,1.32,0,1,1-1.32-1.32A1.32,1.32,0,0,1,18.19,5.13Z"/>
  </g>
</svg>
