<svg xmlns="http://www.w3.org/2000/svg" viewBox="0 0 106 25">
  <defs>
    <style>
      .a {
        isolation: isolate;
      }

      .b {
        fill: #98ddde;
      }
    </style>
  </defs>
  <title>spotify</title>
  <g>
    <g class="a">
      <g class="a">
        <path class="b" d="M35.58,16.88a4.44,4.44,0,0,0,1-.1,2.1,2.1,0,0,0,.62-.27,1,1,0,0,0,.32-.41,1.42,1.42,0,0,0,.09-.52,1.2,1.2,0,0,0-.58-1,8,8,0,0,0-2-.87c-.4-.14-.81-.31-1.22-.5a4.47,4.47,0,0,1-1.1-.7,3.33,3.33,0,0,1-.79-1A3.29,3.29,0,0,1,31.62,10,3.57,3.57,0,0,1,32,8.44a3.29,3.29,0,0,1,.92-1.18,4.08,4.08,0,0,1,1.44-.74,6.24,6.24,0,0,1,1.9-.26,7.77,7.77,0,0,1,2.18.27,7.43,7.43,0,0,1,1.51.59l-.81,2.21a7.37,7.37,0,0,0-1.16-.47,4.94,4.94,0,0,0-1.54-.21A2.74,2.74,0,0,0,35,8.93a.94.94,0,0,0-.45.85,1,1,0,0,0,.17.58,1.41,1.41,0,0,0,.45.42,4.44,4.44,0,0,0,.69.35l.85.31c.65.24,1.22.48,1.7.71a4.71,4.71,0,0,1,1.19.82,2.86,2.86,0,0,1,.71,1.1,4.31,4.31,0,0,1,.24,1.53,3.25,3.25,0,0,1-1.23,2.71,5.9,5.9,0,0,1-3.69,1,9.62,9.62,0,0,1-1.49-.1c-.44-.07-.84-.15-1.18-.24a6.77,6.77,0,0,1-.88-.31c-.25-.11-.45-.21-.62-.3l.79-2.24a6.49,6.49,0,0,0,1.38.55A6.77,6.77,0,0,0,35.58,16.88Z"/>
        <path class="b" d="M46.4,6.4a7.87,7.87,0,0,1,4.29,1,3.58,3.58,0,0,1,1.49,3.21,3.59,3.59,0,0,1-1.51,3.25,7.8,7.8,0,0,1-4.32,1h-.88V19H42.66V6.72a16.28,16.28,0,0,1,1.94-.25C45.29,6.42,45.89,6.4,46.4,6.4Zm.18,2.39-.6,0-.51,0v3.6h.88a4.67,4.67,0,0,0,2.19-.4,1.5,1.5,0,0,0,.74-1.47,1.75,1.75,0,0,0-.19-.87,1.36,1.36,0,0,0-.54-.55,2.3,2.3,0,0,0-.85-.28A6.43,6.43,0,0,0,46.58,8.79Z"/>
        <path class="b" d="M66.13,12.77a7.64,7.64,0,0,1-.48,2.82,5.77,5.77,0,0,1-1.3,2,5.37,5.37,0,0,1-2,1.24,7.34,7.34,0,0,1-2.46.41,7.09,7.09,0,0,1-2.41-.41,5.49,5.49,0,0,1-2-1.24,5.56,5.56,0,0,1-1.33-2,7.44,7.44,0,0,1-.49-2.82,7.47,7.47,0,0,1,.5-2.82,6,6,0,0,1,1.36-2,5.67,5.67,0,0,1,2-1.24,6.71,6.71,0,0,1,2.37-.41,6.86,6.86,0,0,1,2.41.41,5.49,5.49,0,0,1,2,1.24,5.69,5.69,0,0,1,1.33,2A7.47,7.47,0,0,1,66.13,12.77Zm-9.52,0a5.7,5.7,0,0,0,.22,1.66,3.91,3.91,0,0,0,.65,1.27,3,3,0,0,0,1,.82,3.62,3.62,0,0,0,2.79,0,2.93,2.93,0,0,0,1-.82A3.91,3.91,0,0,0,63,14.43a5.7,5.7,0,0,0,.22-1.66A5.7,5.7,0,0,0,63,11.11a3.77,3.77,0,0,0-.65-1.28,2.83,2.83,0,0,0-1-.82,3.26,3.26,0,0,0-1.39-.29,3.1,3.1,0,0,0-1.4.3,2.9,2.9,0,0,0-1,.83,3.77,3.77,0,0,0-.65,1.28A5.61,5.61,0,0,0,56.61,12.77Z"/>
        <path class="b" d="M77.31,6.54v2.4H73.55V19H70.74V8.94H67V6.54Z"/>
        <path class="b" d="M79.11,6.54h2.81V19H79.11Z"/>
        <path class="b" d="M84.79,19V6.54h8.36V8.9H87.6v2.61h4.94v2.36H87.6V19Z"/>
        <path class="b" d="M100.2,11.66q.75-1.27,1.44-2.55c.46-.85.88-1.7,1.26-2.57H106q-1,2-2.12,3.91c-.74,1.26-1.51,2.53-2.33,3.8V19h-2.8V14.28q-1.23-1.9-2.34-3.81C95.68,9.2,95,7.89,94.28,6.54h3.26c.38.87.8,1.72,1.24,2.57S99.7,10.81,100.2,11.66Z"/>
      </g>
    </g>
    <path class="b" d="M12.5,0A12.5,12.5,0,1,0,25,12.5,12.52,12.52,0,0,0,12.5,0Zm5.29,18.12a.82.82,0,0,1-.68.36.77.77,0,0,1-.45-.14,11,11,0,0,0-5.52-1.49,12.8,12.8,0,0,0-3.55.5.81.81,0,1,1-.51-1.54,13.66,13.66,0,0,1,4.06-.59A12.33,12.33,0,0,1,17.56,17,.81.81,0,0,1,17.79,18.12Zm1.63-3.34a.94.94,0,0,1-.8.44.89.89,0,0,1-.49-.14A12.77,12.77,0,0,0,11,13.26a21.22,21.22,0,0,0-4.42.5A.94.94,0,0,1,6.11,12a21.5,21.5,0,0,1,4.76-.54,15.12,15.12,0,0,1,8.25,2.08A.94.94,0,0,1,19.42,14.78ZM21,10.88a1.09,1.09,0,0,1-1.49.39,17.58,17.58,0,0,0-8.69-2h0a25.23,25.23,0,0,0-5.15.51,1.09,1.09,0,1,1-.5-2.12,27.76,27.76,0,0,1,5.65-.57h0a19.9,19.9,0,0,1,9.78,2.32A1.09,1.09,0,0,1,21,10.88Z"/>
  </g>
</svg>
