<svg xmlns="http://www.w3.org/2000/svg" viewBox="0 0 111.61 20.74">
  <defs>
    <style>
      .a {
        isolation: isolate;
      }

      .b {
        fill: #98ddde;
      }
    </style>
  </defs>
  <title>twitter</title>
  <g>
    <g class="a">
      <g class="a">
        <path class="b" d="M42.9,4.53V6.92H39.14V17H36.33V6.92H32.57V4.53Z"/>
        <path class="b" d="M53.55,5.86c.14.49.3,1,.48,1.66s.36,1.26.55,1.92.4,1.32.61,2,.4,1.27.59,1.84c.16-.62.31-1.28.48-2s.31-1.47.46-2.23l.42-2.3c.14-.76.27-1.5.39-2.2h2.92Q59.82,7.65,59,10.88T57.21,17H54.64c-.42-1.15-.83-2.36-1.22-3.63s-.79-2.53-1.17-3.8c-.38,1.27-.77,2.54-1.15,3.8s-.79,2.48-1.21,3.63H47.32q-1-2.89-1.78-6.12T44.09,4.53h3c.12.7.25,1.44.4,2.2S47.82,8.26,48,9s.32,1.51.48,2.23.33,1.38.5,2c.21-.59.42-1.22.63-1.88s.4-1.32.59-2,.37-1.29.54-1.9.3-1.16.44-1.64Z"/>
        <path class="b" d="M62.23,4.53H65V17H62.23Z"/>
        <path class="b" d="M77.17,4.53V6.92H73.41V17H70.6V6.92H66.84V4.53Z"/>
        <path class="b" d="M88.69,4.53V6.92H84.93V17H82.12V6.92H78.36V4.53Z"/>
        <path class="b" d="M90.49,17V4.53h8.42V6.88H93.3V9.33h5v2.31h-5v3h6V17Z"/>
        <path class="b" d="M105.05,4.38a7.74,7.74,0,0,1,4.31,1,3.49,3.49,0,0,1,1.49,3.11,3.53,3.53,0,0,1-.6,2.13,4,4,0,0,1-1.74,1.29c.25.31.52.67.79,1.07s.55.82.82,1.26.53.89.78,1.37.49.93.71,1.39h-3.14c-.23-.41-.47-.82-.7-1.24s-.48-.83-.72-1.23-.49-.77-.73-1.12-.49-.68-.73-1h-1.38V17H101.4V4.71a16.11,16.11,0,0,1,1.9-.26C104,4.41,104.54,4.38,105.05,4.38Zm.16,2.4h-.54l-.46,0v3.38H105a4.88,4.88,0,0,0,2.27-.39A1.45,1.45,0,0,0,108,8.47a1.39,1.39,0,0,0-.69-1.31A4.42,4.42,0,0,0,105.21,6.78Z"/>
      </g>
    </g>
    <path class="b" d="M25.55,2.45a10.7,10.7,0,0,1-3,.83,5.26,5.26,0,0,0,2.3-2.9,10.48,10.48,0,0,1-3.32,1.27,5.24,5.24,0,0,0-8.92,4.78A14.86,14.86,0,0,1,1.81,1,5.23,5.23,0,0,0,3.43,8,5.08,5.08,0,0,1,1,7.29v.07a5.24,5.24,0,0,0,4.2,5.13,5.33,5.33,0,0,1-1.37.19,5.56,5.56,0,0,1-1-.1,5.26,5.26,0,0,0,4.89,3.64,10.56,10.56,0,0,1-6.5,2.24A7.43,7.43,0,0,1,0,18.39a14.83,14.83,0,0,0,8,2.35A14.8,14.8,0,0,0,23,5.84V5.16A10.64,10.64,0,0,0,25.55,2.45Z"/>
  </g>
</svg>
