<svg xmlns="http://www.w3.org/2000/svg" viewBox="0 0 119.56 20.79">
  <defs>
    <style>
      .a {
        isolation: isolate;
      }

      .b {
        fill: #98ddde;
      }
    </style>
  </defs>
  <title>youtube</title>
  <g>
    <g class="a">
      <g class="a">
        <path class="b" d="M41.38,8.64q.76-1.28,1.44-2.55c.46-.85.88-1.7,1.27-2.56h3.09q-1,2-2.12,3.9c-.73,1.26-1.51,2.53-2.32,3.8V16H39.93V11.27Q38.7,9.35,37.6,7.45T35.46,3.53h3.26c.39.86.8,1.71,1.24,2.56S40.88,7.79,41.38,8.64Z"/>
        <path class="b" d="M59.78,9.75a7.64,7.64,0,0,1-.48,2.82,5.76,5.76,0,0,1-1.3,2,5.48,5.48,0,0,1-2,1.23,7.3,7.3,0,0,1-2.46.41,7.13,7.13,0,0,1-2.41-.41,5.61,5.61,0,0,1-2-1.23,5.82,5.82,0,0,1-1.33-2,7.44,7.44,0,0,1-.49-2.82,7.22,7.22,0,0,1,.51-2.81,5.88,5.88,0,0,1,1.36-2.05,5.49,5.49,0,0,1,2-1.24,6.85,6.85,0,0,1,2.36-.41A7.09,7.09,0,0,1,56,3.65a5.49,5.49,0,0,1,2,1.24A6,6,0,0,1,59.3,6.94,7.62,7.62,0,0,1,59.78,9.75Zm-9.52,0a5.66,5.66,0,0,0,.22,1.66,3.81,3.81,0,0,0,.65,1.27,2.87,2.87,0,0,0,1,.82,3.27,3.27,0,0,0,1.4.29A3.34,3.34,0,0,0,55,13.5a2.87,2.87,0,0,0,1-.82,3.81,3.81,0,0,0,.65-1.27,5.66,5.66,0,0,0,.22-1.66,5.75,5.75,0,0,0-.22-1.66A3.86,3.86,0,0,0,56,6.81,2.87,2.87,0,0,0,55,6a3.34,3.34,0,0,0-1.4-.29,3.13,3.13,0,0,0-1.4.3,3,3,0,0,0-1,.83,3.77,3.77,0,0,0-.65,1.28A5.66,5.66,0,0,0,50.26,9.75Z"/>
        <path class="b" d="M67,16.25a6.21,6.21,0,0,1-2.27-.37,4.15,4.15,0,0,1-1.57-1,4.05,4.05,0,0,1-.92-1.57,6.33,6.33,0,0,1-.3-2V3.53h2.81v7.52a4.43,4.43,0,0,0,.17,1.29,2.29,2.29,0,0,0,.47.86,1.76,1.76,0,0,0,.72.48,3,3,0,0,0,.93.14,2.27,2.27,0,0,0,1.66-.63,2.91,2.91,0,0,0,.64-2.14V3.53h2.81v7.75a6.44,6.44,0,0,1-.31,2,4.11,4.11,0,0,1-.93,1.58,4.3,4.3,0,0,1-1.61,1A6.57,6.57,0,0,1,67,16.25Z"/>
        <path class="b" d="M84.1,3.53V5.92H80.34V16H77.53V5.92H73.77V3.53Z"/>
        <path class="b" d="M90.78,16.25a6.21,6.21,0,0,1-2.27-.37,4.27,4.27,0,0,1-1.58-1A4,4,0,0,1,86,13.29a6.33,6.33,0,0,1-.3-2V3.53h2.81v7.52a4.12,4.12,0,0,0,.17,1.29,2.29,2.29,0,0,0,.47.86,1.64,1.64,0,0,0,.72.48,3,3,0,0,0,.92.14,2.28,2.28,0,0,0,1.67-.63,3,3,0,0,0,.64-2.14V3.53h2.8v7.75a6.44,6.44,0,0,1-.3,2,4.13,4.13,0,0,1-.94,1.58,4.26,4.26,0,0,1-1.6,1A6.61,6.61,0,0,1,90.78,16.25Z"/>
        <path class="b" d="M102.78,16.16q-1,0-2-.06a13.85,13.85,0,0,1-2.12-.3V3.71a19.13,19.13,0,0,1,1.9-.25c.68,0,1.31-.08,1.9-.08a13.52,13.52,0,0,1,2.19.17,5.2,5.2,0,0,1,1.72.59,3,3,0,0,1,1.12,1.09,3.17,3.17,0,0,1,.41,1.66,2.65,2.65,0,0,1-1.44,2.36A3,3,0,0,1,108,10.47a3.52,3.52,0,0,1,.43,1.75A3.36,3.36,0,0,1,107,15.17,7.49,7.49,0,0,1,102.78,16.16Zm-1.42-7.74h1.37a3.83,3.83,0,0,0,1.85-.33A1.14,1.14,0,0,0,105.14,7,1.09,1.09,0,0,0,104.57,6a3.65,3.65,0,0,0-1.7-.31h-.77l-.74,0Zm0,2.14v3.23l.67.05.79,0a4.83,4.83,0,0,0,2-.36,1.34,1.34,0,0,0,.78-1.33,1.32,1.32,0,0,0-.65-1.24,3.87,3.87,0,0,0-1.86-.37Z"/>
        <path class="b" d="M110.72,16V3.53h8.42V5.88h-5.61V8.33h5v2.31h-5v3h6V16Z"/>
      </g>
    </g>
    <path class="b" d="M27.22,3.57A3.68,3.68,0,0,0,24.3.78,57.38,57.38,0,0,0,13.9,0,58.22,58.22,0,0,0,3.44.78,3.6,3.6,0,0,0,.52,3.57,42.87,42.87,0,0,0,0,10.39a35.9,35.9,0,0,0,.58,6.83A3.73,3.73,0,0,0,3.51,20,60.12,60.12,0,0,0,14,20.79,60.2,60.2,0,0,0,24.43,20a3.61,3.61,0,0,0,2.92-2.79A50.5,50.5,0,0,0,28,10.39,46,46,0,0,0,27.22,3.57ZM10.39,14.94V5.85l7.93,4.54Z"/>
  </g>
</svg>
